<svg width="24" height="24" viewBox="0 0 24 24" fill="none" xmlns="http://www.w3.org/2000/svg">
<path d="M15.4995 14.0014H14.7095L14.4295 13.7314C15.0544 13.0054 15.5112 12.1502 15.767 11.2271C16.0229 10.3039 16.0715 9.33559 15.9095 8.39144C15.4395 5.61144 13.1195 3.39144 10.3195 3.05144C9.3351 2.92691 8.33527 3.02921 7.39651 3.35053C6.45775 3.67185 5.60493 4.20366 4.90332 4.90527C4.20171 5.60688 3.66989 6.4597 3.34858 7.39846C3.02726 8.33723 2.92495 9.33706 3.04949 10.3214C3.38949 13.1214 5.60949 15.4414 8.38949 15.9114C9.33364 16.0735 10.3019 16.0248 11.2251 15.769C12.1483 15.5131 13.0035 15.0564 13.7295 14.4314L13.9995 14.7114V15.5014L18.2495 19.7514C18.6595 20.1614 19.3295 20.1614 19.7395 19.7514C20.1495 19.3414 20.1495 18.6714 19.7395 18.2614L15.4995 14.0014ZM9.49949 14.0014C7.00949 14.0014 4.99949 11.9914 4.99949 9.50144C4.99949 7.01144 7.00949 5.00144 9.49949 5.00144C11.9895 5.00144 13.9995 7.01144 13.9995 9.50144C13.9995 11.9914 11.9895 14.0014 9.49949 14.0014Z" fill="currentColor"/>
</svg>
