<svg width="163" height="118" viewBox="0 0 163 118" fill="none" xmlns="http://www.w3.org/2000/svg">
<path d="M18.9118 38.7208L15 33.7386L11.0882 38.7208C10.744 39.1591 10.2846 39.4929 9.76141 39.6847L3.81423 41.8655L7.34376 47.1255C7.65426 47.5882 7.82975 48.1283 7.85053 48.6852L8.08681 55.0152L14.18 53.2838C14.7161 53.1315 15.2839 53.1315 15.82 53.2838L21.9132 55.0152L22.1495 48.6852C22.1703 48.1283 22.3457 47.5882 22.6562 47.1255L26.1858 41.8655L20.2386 39.6847C19.7154 39.4929 19.256 39.1591 18.9118 38.7208Z" stroke="#C7AB79" stroke-width="4"/>
<path d="M151.912 38.7208L148 33.7386L144.088 38.7208C143.744 39.1591 143.285 39.4929 142.761 39.6847L136.814 41.8655L140.344 47.1255C140.654 47.5882 140.83 48.1283 140.851 48.6852L141.087 55.0152L147.18 53.2838C147.716 53.1315 148.284 53.1315 148.82 53.2838L154.913 55.0152L155.149 48.6852C155.17 48.1283 155.346 47.5882 155.656 47.1255L159.186 41.8655L153.239 39.6847C152.715 39.4929 152.256 39.1591 151.912 38.7208Z" stroke="#C7AB79" stroke-width="4"/>
<path d="M37.9764 77.1246L35 73.3338L32.0236 77.1246C31.7081 77.5263 31.287 77.8323 30.8074 78.0082L26.2824 79.6675L28.9679 83.6696C29.2525 84.0938 29.4134 84.5889 29.4324 85.0993L29.6122 89.9156L34.2484 88.5983C34.7397 88.4587 35.2603 88.4587 35.7516 88.5983L40.3878 89.9156L40.5676 85.0993C40.5866 84.5889 40.7475 84.0938 41.0321 83.6696L43.7176 79.6675L39.1926 78.0082C38.713 77.8323 38.2919 77.5263 37.9764 77.1246Z" stroke="#C7AB79" stroke-width="3.5"/>
<path d="M130.976 77.1246L128 73.3338L125.024 77.1246C124.708 77.5263 124.287 77.8323 123.807 78.0082L119.282 79.6675L121.968 83.6696C122.253 84.0938 122.413 84.5889 122.432 85.0993L122.612 89.9156L127.248 88.5983C127.74 88.4587 128.26 88.4587 128.752 88.5983L133.388 89.9156L133.568 85.0993C133.587 84.5889 133.747 84.0938 134.032 83.6696L136.718 79.6675L132.193 78.0082C131.713 77.8323 131.292 77.5263 130.976 77.1246Z" stroke="#C7AB79" stroke-width="3.5"/>
<path d="M85.173 99.9702L82 95.9289L78.827 99.9702C78.5402 100.335 78.1573 100.614 77.7213 100.773L72.8974 102.542L75.7603 106.809C76.0191 107.195 76.1653 107.645 76.1826 108.109L76.3743 113.243L81.3167 111.839C81.7634 111.712 82.2366 111.712 82.6833 111.839L87.6257 113.243L87.8174 108.109C87.8347 107.645 87.9809 107.195 88.2397 106.809L91.1026 102.542L86.2787 100.773C85.8427 100.614 85.4598 100.335 85.173 99.9702Z" stroke="#C7AB79" stroke-width="3"/>
<path d="M81.931 29.6913L84.4786 34.0225C84.9715 34.8605 85.7907 35.4557 86.74 35.6656L91.6465 36.7501C92.0188 36.8323 92.1657 37.2844 91.9128 37.5698L88.5809 41.3311C87.9362 42.0589 87.6233 43.022 87.7171 43.9896L88.2019 48.9911C88.2386 49.3706 87.8541 49.65 87.5045 49.4977L82.8976 47.4911C82.0063 47.1029 80.9937 47.1029 80.1024 47.4911L75.4955 49.4977C75.1459 49.65 74.7614 49.3706 74.7981 48.9911L75.2829 43.9896C75.3767 43.022 75.0638 42.0589 74.4191 41.3311L71.0872 37.5698C70.8343 37.2844 70.9812 36.8323 71.3535 36.7501L76.26 35.6656C77.2093 35.4557 78.0285 34.8605 78.5214 34.0225L81.069 29.6913C81.2623 29.3626 81.7377 29.3626 81.931 29.6913Z" stroke="#C7AB79" stroke-width="3" stroke-linejoin="round"/>
<path d="M78.5685 2.71077L49 15.3269V46.4231C49 63.0867 82 79 82 79C82 79 115 63.0867 115 46.4231V15.3269L85.4315 2.71077C84.3442 2.24157 83.1779 2 82 2C80.8221 2 79.6558 2.24157 78.5685 2.71077Z" stroke="#C7AB79" stroke-width="4" stroke-linecap="round"/>
</svg>
