<svg width="182" height="105" viewBox="0 0 182 105" fill="none" xmlns="http://www.w3.org/2000/svg">
<mask id="path-1-inside-1_4966_5852" fill="white">
<path fill-rule="evenodd" clip-rule="evenodd" d="M182 2.5C182 1.39543 181.105 0.5 180 0.5H72C70.8954 0.5 70 1.39543 70 2.5V73.5C70 74.6046 70.8954 75.5 72 75.5H152.02C152.765 75.5 153.448 75.9139 153.793 76.574L157.727 84.1064C158.475 85.5384 160.525 85.5384 161.273 84.1064L165.207 76.574C165.552 75.9139 166.235 75.5 166.98 75.5H180C181.105 75.5 182 74.6046 182 73.5V2.5Z"/>
</mask>
<path d="M165.207 76.574L168.753 78.426L165.207 76.574ZM157.727 84.1064L161.273 82.2544L157.727 84.1064ZM161.273 84.1064L164.818 85.9584L161.273 84.1064ZM153.793 76.574L150.247 78.426L153.793 76.574ZM72 4.5H180V-3.5H72V4.5ZM74 73.5V2.5H66V73.5H74ZM152.02 71.5H72V79.5H152.02V71.5ZM161.273 82.2544L157.338 74.722L150.247 78.426L154.182 85.9584L161.273 82.2544ZM161.662 74.722L157.727 82.2544L164.818 85.9584L168.753 78.426L161.662 74.722ZM180 71.5H166.98V79.5H180V71.5ZM178 2.5V73.5H186V2.5H178ZM180 79.5C183.314 79.5 186 76.8137 186 73.5H178C178 72.3954 178.895 71.5 180 71.5V79.5ZM168.753 78.426C168.408 79.0861 167.725 79.5 166.98 79.5V71.5C164.746 71.5 162.696 72.7416 161.662 74.722L168.753 78.426ZM154.182 85.9584C156.426 90.2544 162.574 90.2543 164.818 85.9584L157.727 82.2544C158.475 80.8224 160.525 80.8223 161.273 82.2544L154.182 85.9584ZM152.02 79.5C151.275 79.5 150.592 79.0861 150.247 78.426L157.338 74.722C156.304 72.7416 154.254 71.5 152.02 71.5V79.5ZM66 73.5C66 76.8137 68.6863 79.5 72 79.5V71.5C73.1046 71.5 74 72.3954 74 73.5H66ZM180 4.5C178.895 4.5 178 3.60457 178 2.5H186C186 -0.813706 183.314 -3.5 180 -3.5V4.5ZM72 -3.5C68.6863 -3.5 66 -0.813716 66 2.5H74C74 3.60457 73.1046 4.5 72 4.5V-3.5Z" fill="#C7AB79" mask="url(#path-1-inside-1_4966_5852)"/>
<line x1="85.5" y1="27" x2="166.5" y2="27" stroke="#C7AB79" stroke-width="3" stroke-linecap="round"/>
<line x1="85.5" y1="38" x2="166.5" y2="38" stroke="#C7AB79" stroke-width="3" stroke-linecap="round"/>
<line x1="85.5" y1="49" x2="166.5" y2="49" stroke="#C7AB79" stroke-width="3" stroke-linecap="round"/>
<line x1="14.5" y1="55" x2="62.5" y2="55" stroke="#C7AB79" stroke-width="3" stroke-linecap="round"/>
<line x1="14.5" y1="64.5" x2="62.5" y2="64.5" stroke="#C7AB79" stroke-width="3" stroke-linecap="round"/>
<line x1="14.5" y1="74" x2="62.5" y2="74" stroke="#C7AB79" stroke-width="3" stroke-linecap="round"/>
<path fill-rule="evenodd" clip-rule="evenodd" d="M64 40.5C64 39.9477 63.5523 39.5 63 39.5H4H1C0.447715 39.5 0 39.9477 0 40.5V43.5V88.0862V91.0862C0 91.6385 0.447715 92.0862 1 92.0862H4H10.0188C10.3938 92.0862 10.7373 92.296 10.9085 92.6296L14.7524 100.12L16.1107 102.766C16.4826 103.491 17.5183 103.491 17.8901 102.766L19.2484 100.12L23.0923 92.6296C23.2635 92.296 23.607 92.0862 23.982 92.0862H63C63.5523 92.0862 64 91.6385 64 91.0862V89.0862C64 88.5339 63.5523 88.0862 63 88.0862H23.3712C21.8712 88.0862 20.4973 88.9254 19.8125 90.2599L17.8901 94.0057C17.5182 94.7303 16.4826 94.7303 16.1107 94.0057L14.1884 90.2599C13.5035 88.9254 12.1296 88.0862 10.6296 88.0862H5C4.44772 88.0862 4 87.6385 4 87.0862V44.5C4 43.9477 4.44772 43.5 5 43.5H63C63.5523 43.5 64 43.0523 64 42.5V40.5Z" fill="#C7AB79"/>
</svg>
