<svg width="96" height="105" viewBox="0 0 96 105" fill="none" xmlns="http://www.w3.org/2000/svg">
<path d="M2 41.0117V68.5965C2 69.8075 2.5486 70.9533 3.49196 71.7126L21.008 85.8109C21.9514 86.5702 22.5 87.7159 22.5 88.9269V99.0117C22.5 101.221 24.2909 103.012 26.5 103.012H32C34.2091 103.012 36 101.221 36 99.0117V82.8921C36 81.701 35.4692 80.5719 34.5521 79.812L19.9479 67.7114C19.0308 66.9515 18.5 65.8224 18.5 64.6313V58.0117" stroke="#C7AB79" stroke-width="3.5" stroke-linecap="round" stroke-linejoin="round"/>
<path d="M94 41.0117V68.5965C94 69.8075 93.4514 70.9533 92.508 71.7126L74.992 85.8109C74.0486 86.5702 73.5 87.7159 73.5 88.9269V99.0117C73.5 101.221 71.7091 103.012 69.5 103.012H64C61.7909 103.012 60 101.221 60 99.0117V82.8921C60 81.701 60.5308 80.5719 61.4479 79.812L76.0521 67.7114C76.9692 66.9515 77.5 65.8224 77.5 64.6313V58.0117" stroke="#C7AB79" stroke-width="3.5" stroke-linecap="round" stroke-linejoin="round"/>
<path d="M32 51.0117V39.0117C32 35.1457 35.134 32.0117 39 32.0117H57.5C61.366 32.0117 64.5 35.1457 64.5 39.0117V51.0117" stroke="#C7AB79" stroke-width="4" stroke-linecap="round"/>
<circle cx="48.5" cy="16.5117" r="8.5" stroke="#C7AB79" stroke-width="4"/>
<path fill-rule="evenodd" clip-rule="evenodd" d="M58.5376 2.26814C58.2438 1.17172 58.9248 0.0321192 60.0595 0.00341807C60.1494 0.00114392 60.2396 0 60.3301 0C66.1291 0 70.8301 4.70101 70.8301 10.5C70.8301 14.4837 68.6115 17.9493 65.3426 19.7286C64.3465 20.2708 63.188 19.6237 62.8944 18.5282L62.8821 18.482C62.6085 17.461 63.2035 16.427 64.0678 15.8185C65.7385 14.6422 66.8301 12.6986 66.8301 10.5C66.8301 6.91015 63.9199 4 60.3301 4V4C59.5979 4 58.8885 3.57788 58.699 2.87068L58.5376 2.26814Z" fill="#C7AB79"/>
<path fill-rule="evenodd" clip-rule="evenodd" d="M64.8686 26.5176C64.5282 25.2474 65.4854 24 66.8004 24H69.8301C74.8006 24 78.8301 28.0294 78.8301 33V45C78.8301 46.1046 77.9346 47 76.8301 47C75.7255 47 74.8301 46.1046 74.8301 45V33C74.8301 30.2386 72.5915 28 69.8301 28H66.8004C65.8952 28 65.1028 27.392 64.8686 26.5176V26.5176Z" fill="#C7AB79"/>
<path fill-rule="evenodd" clip-rule="evenodd" d="M37.2945 2.26814C37.5883 1.17172 36.9072 0.0321192 35.7725 0.00341807C35.6826 0.00114392 35.5924 0 35.502 0C29.703 0 25.002 4.70101 25.002 10.5C25.002 14.4837 27.2205 17.9493 30.4895 19.7286C31.4856 20.2708 32.6441 19.6237 32.9376 18.5282L32.95 18.482C33.2235 17.461 32.6286 16.427 31.7643 15.8185C30.0935 14.6422 29.002 12.6986 29.002 10.5C29.002 6.91015 31.9121 4 35.502 4V4C36.2341 4 36.9435 3.57788 37.133 2.87068L37.2945 2.26814Z" fill="#C7AB79"/>
<path fill-rule="evenodd" clip-rule="evenodd" d="M30.9635 26.5176C31.3038 25.2474 30.3467 24 29.0316 24H26.002C21.0314 24 17.002 28.0294 17.002 33V45C17.002 46.1046 17.8974 47 19.002 47C20.1065 47 21.002 46.1046 21.002 45V33C21.002 30.2386 23.2405 28 26.002 28H29.0316C29.9368 28 30.7292 27.392 30.9635 26.5176V26.5176Z" fill="#C7AB79"/>
</svg>
