<svg width="60" height="60" viewBox="0 0 60 60" fill="none" xmlns="http://www.w3.org/2000/svg">
<path d="M30 55C43.8071 55 55 43.8071 55 30C55 16.1929 43.8071 5 30 5C16.1929 5 5 16.1929 5 30C5 43.8071 16.1929 55 30 55Z" stroke="#C7AB79" stroke-width="3"/>
<path d="M25 30C25 22.045 28.285 19.1925 30 18.75C31.525 18.9713 35 21.515 35 30C35 38.485 31.525 41.25 30 41.25C28.285 41.0287 25 37.955 25 30Z" stroke="#C7AB79" stroke-width="3"/>
<path d="M25.0006 28.7509C23.0581 26.8284 17.0231 27.3009 15.0006 27.5009C14.3943 29.7034 15.4406 34.3659 17.8668 36.7684C20.9006 39.7722 23.3268 41.2509 30.0006 41.2509C31.8756 41.2509 37.6443 40.6947 40.7856 37.3384C43.9256 33.9859 44.1256 29.4972 43.7506 27.5009C41.8806 27.3009 36.7956 26.8347 35.0006 28.7509" stroke="#C7AB79" stroke-width="3"/>
</svg>
